<svg width="23" height="22" viewBox="0 0 23 22" fill="none" xmlns="http://www.w3.org/2000/svg">
<path d="M20.9706 0.4375C21.2831 0.4375 21.5663 0.554688 21.8202 0.789062C22.0741 1.02344 22.2011 1.29687 22.2011 1.60938V20.8281C22.2011 21.1406 22.0741 21.4141 21.8202 21.6484C21.5663 21.8828 21.2831 22 20.9706 22H15.4628V13.6797H18.2753L18.6855 10.3984H15.4628V8.28906C15.4628 7.23438 16.0097 6.70703 17.1034 6.70703H18.8026V3.83594C18.2167 3.71875 17.3769 3.66016 16.2831 3.66016C15.0331 3.66016 14.0273 4.04102 13.2655 4.80273C12.5038 5.56445 12.123 6.62891 12.123 7.99609V10.3984H9.31046V13.6797H12.123V22H1.75186C1.43936 22 1.16592 21.8828 0.931549 21.6484C0.697174 21.4141 0.579987 21.1406 0.579987 20.8281V1.60938C0.579987 1.29687 0.697174 1.02344 0.931549 0.789062C1.16592 0.554688 1.43936 0.4375 1.75186 0.4375H20.9706Z" fill="#141414"/>
</svg>
