<svg width="476" height="356" viewBox="0 0 476 356" fill="none" xmlns="http://www.w3.org/2000/svg">
<rect y="0.5" width="476" height="355" rx="12" fill="white"/>
<rect x="42" y="193.5" width="392" height="48" rx="24" fill="#005AE2"/>
<path d="M200.85 211.7V213.24H198.092V221.5H196.482V213.24H193.71V211.7H200.85ZM202.539 215.676C202.921 214.808 203.64 214.374 204.695 214.374V216.012C204.116 215.975 203.612 216.115 203.183 216.432C202.753 216.74 202.539 217.253 202.539 217.972V221.5H201.027V214.5H202.539V215.676ZM207.24 213.17C207.053 213.357 206.829 213.45 206.568 213.45C206.306 213.45 206.078 213.357 205.882 213.17C205.695 212.974 205.602 212.745 205.602 212.484C205.602 212.223 205.695 211.999 205.882 211.812C206.068 211.616 206.297 211.518 206.568 211.518C206.838 211.518 207.067 211.616 207.254 211.812C207.44 211.999 207.534 212.223 207.534 212.484C207.534 212.745 207.436 212.974 207.24 213.17ZM205.812 221.5V214.5H207.324V221.5H205.812ZM216.723 214.318C217.517 214.318 218.156 214.575 218.641 215.088C219.127 215.601 219.369 216.292 219.369 217.16V221.5H217.857V217.258C217.857 216.773 217.736 216.399 217.493 216.138C217.251 215.867 216.919 215.732 216.499 215.732C216.033 215.732 215.659 215.886 215.379 216.194C215.109 216.502 214.973 216.964 214.973 217.58V221.5H213.461V217.258C213.461 216.773 213.345 216.399 213.111 216.138C212.887 215.867 212.565 215.732 212.145 215.732C211.688 215.732 211.315 215.891 211.025 216.208C210.736 216.516 210.591 216.973 210.591 217.58V221.5H209.079V214.5H210.591V215.34C211.039 214.659 211.707 214.318 212.593 214.318C213.489 214.318 214.152 214.687 214.581 215.424C215.048 214.687 215.762 214.318 216.723 214.318ZM230.871 220.758C230.181 221.374 229.289 221.682 228.197 221.682C227.105 221.682 226.214 221.374 225.523 220.758C224.833 220.133 224.487 219.297 224.487 218.252V211.7H226.097V218.154C226.097 218.751 226.27 219.227 226.615 219.582C226.97 219.937 227.497 220.114 228.197 220.114C228.897 220.114 229.42 219.937 229.765 219.582C230.12 219.227 230.297 218.751 230.297 218.154V211.7H231.907V218.252C231.907 219.297 231.562 220.133 230.871 220.758ZM239.345 221.5L237.273 217.93H235.369V221.5H233.759V211.7H237.679C238.557 211.7 239.299 212.008 239.905 212.624C240.521 213.231 240.829 213.973 240.829 214.85C240.829 215.475 240.647 216.049 240.283 216.572C239.929 217.085 239.462 217.459 238.883 217.692L241.109 221.5H239.345ZM235.369 213.212V216.488H237.679C238.109 216.488 238.473 216.329 238.771 216.012C239.07 215.695 239.219 215.307 239.219 214.85C239.219 214.393 239.07 214.005 238.771 213.688C238.473 213.371 238.109 213.212 237.679 213.212H235.369ZM243.955 219.96H247.945V221.5H242.345V211.7H243.955V219.96Z" fill="white"/>
<path d="M267.459 213.316C267.44 213.541 267.112 213.598 267.006 213.395L266.438 212.298C266.402 212.226 266.327 212.179 266.242 212.173L264.935 212.078C264.692 212.06 264.631 211.756 264.85 211.658L266.032 211.131C266.108 211.096 266.16 211.027 266.166 210.948L266.268 209.735C266.287 209.509 266.615 209.452 266.721 209.656L267.289 210.753C267.326 210.824 267.4 210.872 267.485 210.878L268.792 210.973C269.035 210.991 269.097 211.295 268.877 211.393L267.695 211.92C267.619 211.954 267.568 212.024 267.561 212.102L267.459 213.316Z" fill="white"/>
<path d="M263.706 214.144C263.674 214.253 263.507 214.253 263.476 214.144L263.305 213.556C263.294 213.518 263.262 213.489 263.221 213.478L262.588 213.32C262.471 213.291 262.471 213.136 262.588 213.107L263.221 212.948C263.262 212.938 263.294 212.908 263.305 212.87L263.476 212.282C263.507 212.173 263.674 212.173 263.706 212.282L263.876 212.87C263.887 212.908 263.92 212.938 263.961 212.948L264.594 213.107C264.711 213.136 264.711 213.291 264.594 213.32L263.961 213.478C263.92 213.489 263.887 213.518 263.876 213.556L263.706 214.144Z" fill="white"/>
<path d="M265.888 217.52C265.856 217.629 265.689 217.629 265.658 217.52L265.487 216.932C265.476 216.894 265.444 216.864 265.403 216.854L264.77 216.696C264.652 216.667 264.652 216.512 264.77 216.482L265.403 216.324C265.444 216.314 265.476 216.284 265.487 216.246L265.658 215.658C265.689 215.549 265.856 215.549 265.888 215.658L266.058 216.246C266.069 216.284 266.101 216.314 266.142 216.324L266.775 216.482C266.893 216.512 266.893 216.667 266.775 216.696L266.142 216.854C266.101 216.864 266.069 216.894 266.058 216.932L265.888 217.52Z" fill="white"/>
<path d="M264.031 216.197C264.01 216.27 263.899 216.27 263.878 216.197L263.764 215.805C263.757 215.78 263.735 215.76 263.708 215.753L263.286 215.648C263.208 215.628 263.208 215.525 263.286 215.505L263.708 215.4C263.735 215.393 263.757 215.373 263.764 215.348L263.878 214.956C263.899 214.883 264.01 214.883 264.031 214.956L264.145 215.348C264.152 215.373 264.174 215.393 264.201 215.4L264.623 215.505C264.701 215.525 264.701 215.628 264.623 215.648L264.201 215.753C264.174 215.76 264.152 215.78 264.145 215.805L264.031 216.197Z" fill="white"/>
<path d="M269.122 214.847C269.101 214.919 268.99 214.919 268.969 214.847L268.855 214.455C268.848 214.429 268.826 214.41 268.799 214.403L268.377 214.297C268.299 214.278 268.299 214.174 268.377 214.155L268.799 214.049C268.826 214.043 268.848 214.023 268.855 213.997L268.969 213.606C268.99 213.533 269.101 213.533 269.122 213.606L269.236 213.997C269.243 214.023 269.265 214.043 269.292 214.049L269.714 214.155C269.792 214.174 269.792 214.278 269.714 214.297L269.292 214.403C269.265 214.41 269.243 214.429 269.236 214.455L269.122 214.847Z" fill="white"/>
<path d="M276.318 223.003L275.591 223.678M266.158 214.042L277.962 224.088C278.255 224.337 278.265 224.763 277.984 225.024V225.024C277.704 225.284 277.25 225.278 276.98 225.008C272.905 220.923 265.728 213.707 266.158 214.042Z" stroke="white"/>
<path d="M58.65 272.418C59.098 272.633 59.4527 272.941 59.714 273.342C59.9847 273.743 60.12 274.205 60.12 274.728C60.12 275.512 59.8447 276.17 59.294 276.702C58.7433 277.234 58.0713 277.5 57.278 277.5H53.05V267.7H56.97C57.7353 267.7 58.384 267.957 58.916 268.47C59.448 268.983 59.714 269.618 59.714 270.374C59.714 271.242 59.3593 271.923 58.65 272.418ZM56.97 268.918H54.352V271.914H56.97C57.3807 271.914 57.726 271.769 58.006 271.48C58.286 271.191 58.426 270.836 58.426 270.416C58.426 270.005 58.2813 269.655 57.992 269.366C57.712 269.067 57.3713 268.918 56.97 268.918ZM57.278 276.282C57.7167 276.282 58.0853 276.128 58.384 275.82C58.6827 275.512 58.832 275.134 58.832 274.686C58.832 274.247 58.678 273.874 58.37 273.566C58.0713 273.258 57.7073 273.104 57.278 273.104H54.352V276.282H57.278ZM66.2182 270.5H67.5202L64.6642 277.934C64.3655 278.727 63.9455 279.329 63.4042 279.74C62.8722 280.16 62.2562 280.347 61.5562 280.3V279.166C62.4149 279.231 63.0449 278.755 63.4462 277.738L63.5722 277.472L60.5202 270.5H61.8222L64.2022 275.988L66.2182 270.5ZM75.3273 277.682C74.2726 277.682 73.3953 277.332 72.6953 276.632C71.9953 275.923 71.6453 275.045 71.6453 274C71.6453 272.955 71.9953 272.082 72.6953 271.382C73.3953 270.673 74.2726 270.318 75.3273 270.318C76.0179 270.318 76.6386 270.486 77.1893 270.822C77.7399 271.149 78.1506 271.592 78.4213 272.152L77.3993 272.74C77.2219 272.367 76.9466 272.068 76.5733 271.844C76.2093 271.62 75.7939 271.508 75.3273 271.508C74.6273 271.508 74.0393 271.746 73.5633 272.222C73.0966 272.698 72.8633 273.291 72.8633 274C72.8633 274.7 73.0966 275.288 73.5633 275.764C74.0393 276.24 74.6273 276.478 75.3273 276.478C75.7939 276.478 76.2139 276.371 76.5873 276.156C76.9606 275.932 77.2453 275.633 77.4413 275.26L78.4773 275.862C78.1786 276.413 77.7493 276.856 77.1893 277.192C76.6293 277.519 76.0086 277.682 75.3273 277.682ZM79.6799 277.5V267.28H80.8979V277.5H79.6799ZM83.372 269.226C83.1387 269.226 82.9427 269.147 82.784 268.988C82.6254 268.829 82.546 268.638 82.546 268.414C82.546 268.19 82.6254 267.999 82.784 267.84C82.9427 267.672 83.1387 267.588 83.372 267.588C83.596 267.588 83.7874 267.672 83.946 267.84C84.1047 267.999 84.184 268.19 84.184 268.414C84.184 268.638 84.1047 268.829 83.946 268.988C83.7874 269.147 83.596 269.226 83.372 269.226ZM82.756 277.5V270.5H83.974V277.5H82.756ZM89.1222 277.682C88.0675 277.682 87.1902 277.332 86.4902 276.632C85.7902 275.923 85.4402 275.045 85.4402 274C85.4402 272.955 85.7902 272.082 86.4902 271.382C87.1902 270.673 88.0675 270.318 89.1222 270.318C89.8129 270.318 90.4335 270.486 90.9842 270.822C91.5349 271.149 91.9455 271.592 92.2162 272.152L91.1942 272.74C91.0169 272.367 90.7415 272.068 90.3682 271.844C90.0042 271.62 89.5889 271.508 89.1222 271.508C88.4222 271.508 87.8342 271.746 87.3582 272.222C86.8915 272.698 86.6582 273.291 86.6582 274C86.6582 274.7 86.8915 275.288 87.3582 275.764C87.8342 276.24 88.4222 276.478 89.1222 276.478C89.5889 276.478 90.0089 276.371 90.3822 276.156C90.7555 275.932 91.0402 275.633 91.2362 275.26L92.2722 275.862C91.9735 276.413 91.5442 276.856 90.9842 277.192C90.4242 277.519 89.8035 277.682 89.1222 277.682ZM99.3968 277.5H97.8848L94.6928 274.182V277.5H93.4748V267.7H94.6928V273.594L97.7168 270.5H99.2848L95.9388 273.888L99.3968 277.5ZM101.145 269.226C100.912 269.226 100.716 269.147 100.557 268.988C100.399 268.829 100.319 268.638 100.319 268.414C100.319 268.19 100.399 267.999 100.557 267.84C100.716 267.672 100.912 267.588 101.145 267.588C101.369 267.588 101.561 267.672 101.719 267.84C101.878 267.999 101.957 268.19 101.957 268.414C101.957 268.638 101.878 268.829 101.719 268.988C101.561 269.147 101.369 269.226 101.145 269.226ZM100.529 277.5V270.5H101.747V277.5H100.529ZM107.092 270.318C107.913 270.318 108.571 270.579 109.066 271.102C109.56 271.615 109.808 272.315 109.808 273.202V277.5H108.59V273.272C108.59 272.703 108.436 272.264 108.128 271.956C107.82 271.639 107.395 271.48 106.854 271.48C106.247 271.48 105.757 271.671 105.384 272.054C105.01 272.427 104.824 273.006 104.824 273.79V277.5H103.606V270.5H104.824V271.508C105.318 270.715 106.074 270.318 107.092 270.318ZM117.318 270.5H118.522V277.206C118.522 278.242 118.172 279.045 117.472 279.614C116.772 280.193 115.932 280.482 114.952 280.482C114.168 280.482 113.491 280.333 112.922 280.034C112.353 279.745 111.923 279.325 111.634 278.774L112.698 278.172C113.081 278.956 113.841 279.348 114.98 279.348C115.708 279.348 116.277 279.157 116.688 278.774C117.108 278.391 117.318 277.869 117.318 277.206V276.212C116.702 277.145 115.825 277.612 114.686 277.612C113.687 277.612 112.843 277.257 112.152 276.548C111.461 275.839 111.116 274.975 111.116 273.958C111.116 272.941 111.461 272.082 112.152 271.382C112.843 270.673 113.687 270.318 114.686 270.318C115.834 270.318 116.711 270.78 117.318 271.704V270.5ZM113.048 275.736C113.524 276.212 114.117 276.45 114.826 276.45C115.535 276.45 116.128 276.212 116.604 275.736C117.08 275.26 117.318 274.667 117.318 273.958C117.318 273.258 117.08 272.67 116.604 272.194C116.128 271.718 115.535 271.48 114.826 271.48C114.117 271.48 113.524 271.718 113.048 272.194C112.572 272.67 112.334 273.258 112.334 273.958C112.334 274.667 112.572 275.26 113.048 275.736ZM130.265 267.7V268.932H127.367V277.5H126.079V268.932H123.195V267.7H130.265ZM131.689 271.676C132.09 270.808 132.818 270.374 133.873 270.374V271.648C133.276 271.62 132.762 271.779 132.333 272.124C131.904 272.469 131.689 273.025 131.689 273.79V277.5H130.471V270.5H131.689V271.676ZM135.681 269.226C135.447 269.226 135.251 269.147 135.093 268.988C134.934 268.829 134.855 268.638 134.855 268.414C134.855 268.19 134.934 267.999 135.093 267.84C135.251 267.672 135.447 267.588 135.681 267.588C135.905 267.588 136.096 267.672 136.255 267.84C136.413 267.999 136.493 268.19 136.493 268.414C136.493 268.638 136.413 268.829 136.255 268.988C136.096 269.147 135.905 269.226 135.681 269.226ZM135.065 277.5V270.5H136.283V277.5H135.065ZM145.701 270.318C146.485 270.318 147.119 270.575 147.605 271.088C148.09 271.592 148.333 272.278 148.333 273.146V277.5H147.115V273.188C147.115 272.647 146.975 272.227 146.695 271.928C146.415 271.629 146.041 271.48 145.575 271.48C145.052 271.48 144.632 271.657 144.315 272.012C144.007 272.357 143.853 272.889 143.853 273.608V277.5H142.635V273.188C142.635 272.647 142.499 272.227 142.229 271.928C141.967 271.629 141.608 271.48 141.151 271.48C140.637 271.48 140.208 271.657 139.863 272.012C139.527 272.367 139.359 272.899 139.359 273.608V277.5H138.141V270.5H139.359V271.438C139.835 270.691 140.53 270.318 141.445 270.318C142.387 270.318 143.073 270.715 143.503 271.508C143.988 270.715 144.721 270.318 145.701 270.318ZM156.35 276.744C155.668 277.369 154.786 277.682 153.704 277.682C152.621 277.682 151.734 277.369 151.044 276.744C150.362 276.109 150.022 275.265 150.022 274.21V267.7H151.324V274.154C151.324 274.845 151.529 275.395 151.94 275.806C152.35 276.207 152.938 276.408 153.704 276.408C154.469 276.408 155.057 276.207 155.468 275.806C155.878 275.395 156.084 274.845 156.084 274.154V267.7H157.372V274.21C157.372 275.265 157.031 276.109 156.35 276.744ZM165.173 277.5L162.975 273.748H160.665V277.5H159.363V267.7H163.283C164.123 267.7 164.841 267.999 165.439 268.596C166.036 269.184 166.335 269.898 166.335 270.738C166.335 271.373 166.143 271.951 165.761 272.474C165.387 272.997 164.902 273.365 164.305 273.58L166.615 277.5H165.173ZM160.665 268.918V272.572H163.283C163.768 272.572 164.179 272.395 164.515 272.04C164.86 271.676 165.033 271.242 165.033 270.738C165.033 270.234 164.86 269.805 164.515 269.45C164.179 269.095 163.768 268.918 163.283 268.918H160.665ZM169.223 276.268H173.451V277.5H167.921V267.7H169.223V276.268ZM176.889 276.058L175.979 279.46H174.929L175.489 276.058H176.889ZM182.236 267.7H183.538V277.5H182.236V267.7ZM194.81 270.5H196.028V277.5H194.81V276.296C194.203 277.22 193.321 277.682 192.164 277.682C191.184 277.682 190.349 277.327 189.658 276.618C188.967 275.899 188.622 275.027 188.622 274C188.622 272.973 188.967 272.105 189.658 271.396C190.349 270.677 191.184 270.318 192.164 270.318C193.321 270.318 194.203 270.78 194.81 271.704V270.5ZM192.318 276.506C193.027 276.506 193.62 276.268 194.096 275.792C194.572 275.307 194.81 274.709 194.81 274C194.81 273.291 194.572 272.698 194.096 272.222C193.62 271.737 193.027 271.494 192.318 271.494C191.618 271.494 191.03 271.737 190.554 272.222C190.078 272.698 189.84 273.291 189.84 274C189.84 274.709 190.078 275.307 190.554 275.792C191.03 276.268 191.618 276.506 192.318 276.506ZM203.683 270.5H204.887V277.206C204.887 278.242 204.537 279.045 203.837 279.614C203.137 280.193 202.297 280.482 201.317 280.482C200.533 280.482 199.857 280.333 199.287 280.034C198.718 279.745 198.289 279.325 197.999 278.774L199.063 278.172C199.446 278.956 200.207 279.348 201.345 279.348C202.073 279.348 202.643 279.157 203.053 278.774C203.473 278.391 203.683 277.869 203.683 277.206V276.212C203.067 277.145 202.19 277.612 201.051 277.612C200.053 277.612 199.208 277.257 198.517 276.548C197.827 275.839 197.481 274.975 197.481 273.958C197.481 272.941 197.827 272.082 198.517 271.382C199.208 270.673 200.053 270.318 201.051 270.318C202.199 270.318 203.077 270.78 203.683 271.704V270.5ZM199.413 275.736C199.889 276.212 200.482 276.45 201.191 276.45C201.901 276.45 202.493 276.212 202.969 275.736C203.445 275.26 203.683 274.667 203.683 273.958C203.683 273.258 203.445 272.67 202.969 272.194C202.493 271.718 201.901 271.48 201.191 271.48C200.482 271.48 199.889 271.718 199.413 272.194C198.937 272.67 198.699 273.258 198.699 273.958C198.699 274.667 198.937 275.26 199.413 275.736ZM207.951 271.676C208.352 270.808 209.08 270.374 210.135 270.374V271.648C209.537 271.62 209.024 271.779 208.595 272.124C208.165 272.469 207.951 273.025 207.951 273.79V277.5H206.733V270.5H207.951V271.676ZM211.798 274.56C211.919 275.185 212.204 275.671 212.652 276.016C213.109 276.361 213.669 276.534 214.332 276.534C215.256 276.534 215.928 276.193 216.348 275.512L217.384 276.1C216.702 277.155 215.676 277.682 214.304 277.682C213.193 277.682 212.288 277.337 211.588 276.646C210.897 275.946 210.552 275.064 210.552 274C210.552 272.945 210.892 272.068 211.574 271.368C212.255 270.668 213.137 270.318 214.22 270.318C215.246 270.318 216.082 270.682 216.726 271.41C217.379 272.129 217.706 272.997 217.706 274.014C217.706 274.191 217.692 274.373 217.664 274.56H211.798ZM214.22 271.466C213.566 271.466 213.025 271.653 212.596 272.026C212.166 272.39 211.9 272.88 211.798 273.496H216.474C216.371 272.833 216.11 272.329 215.69 271.984C215.27 271.639 214.78 271.466 214.22 271.466ZM219.946 274.56C220.067 275.185 220.352 275.671 220.8 276.016C221.257 276.361 221.817 276.534 222.48 276.534C223.404 276.534 224.076 276.193 224.496 275.512L225.532 276.1C224.851 277.155 223.824 277.682 222.452 277.682C221.341 277.682 220.436 277.337 219.736 276.646C219.045 275.946 218.7 275.064 218.7 274C218.7 272.945 219.041 272.068 219.722 271.368C220.403 270.668 221.285 270.318 222.368 270.318C223.395 270.318 224.23 270.682 224.874 271.41C225.527 272.129 225.854 272.997 225.854 274.014C225.854 274.191 225.84 274.373 225.812 274.56H219.946ZM222.368 271.466C221.715 271.466 221.173 271.653 220.744 272.026C220.315 272.39 220.049 272.88 219.946 273.496H224.622C224.519 272.833 224.258 272.329 223.838 271.984C223.418 271.639 222.928 271.466 222.368 271.466ZM234.562 271.676H232.7V275.47C232.7 275.815 232.765 276.063 232.896 276.212C233.036 276.352 233.246 276.427 233.526 276.436C233.806 276.436 234.151 276.427 234.562 276.408V277.5C233.498 277.64 232.719 277.556 232.224 277.248C231.729 276.931 231.482 276.338 231.482 275.47V271.676H230.096V270.5H231.482V268.904L232.7 268.54V270.5H234.562V271.676ZM241.557 276.618C240.838 277.327 239.965 277.682 238.939 277.682C237.912 277.682 237.039 277.327 236.321 276.618C235.611 275.909 235.257 275.036 235.257 274C235.257 272.964 235.611 272.091 236.321 271.382C237.039 270.673 237.912 270.318 238.939 270.318C239.965 270.318 240.838 270.673 241.557 271.382C242.275 272.091 242.635 272.964 242.635 274C242.635 275.036 242.275 275.909 241.557 276.618ZM238.939 276.492C239.639 276.492 240.227 276.254 240.703 275.778C241.179 275.302 241.417 274.709 241.417 274C241.417 273.291 241.179 272.698 240.703 272.222C240.227 271.746 239.639 271.508 238.939 271.508C238.248 271.508 237.665 271.746 237.189 272.222C236.713 272.698 236.475 273.291 236.475 274C236.475 274.709 236.713 275.302 237.189 275.778C237.665 276.254 238.248 276.492 238.939 276.492ZM251.378 271.676H249.516V275.47C249.516 275.815 249.582 276.063 249.712 276.212C249.852 276.352 250.062 276.427 250.342 276.436C250.622 276.436 250.968 276.427 251.378 276.408V277.5C250.314 277.64 249.535 277.556 249.04 277.248C248.546 276.931 248.298 276.338 248.298 275.47V271.676H246.912V270.5H248.298V268.904L249.516 268.54V270.5H251.378V271.676ZM256.306 270.318C257.128 270.318 257.786 270.579 258.28 271.102C258.775 271.615 259.022 272.315 259.022 273.202V277.5H257.804V273.272C257.804 272.703 257.65 272.264 257.342 271.956C257.034 271.639 256.61 271.48 256.068 271.48C255.462 271.48 254.972 271.671 254.598 272.054C254.225 272.427 254.038 273.006 254.038 273.79V277.5H252.82V267.7H254.038V271.508C254.533 270.715 255.289 270.318 256.306 270.318ZM261.577 274.56C261.698 275.185 261.983 275.671 262.431 276.016C262.888 276.361 263.448 276.534 264.111 276.534C265.035 276.534 265.707 276.193 266.127 275.512L267.163 276.1C266.481 277.155 265.455 277.682 264.083 277.682C262.972 277.682 262.067 277.337 261.367 276.646C260.676 275.946 260.331 275.064 260.331 274C260.331 272.945 260.671 272.068 261.353 271.368C262.034 270.668 262.916 270.318 263.999 270.318C265.025 270.318 265.861 270.682 266.505 271.41C267.158 272.129 267.485 272.997 267.485 274.014C267.485 274.191 267.471 274.373 267.443 274.56H261.577ZM263.999 271.466C263.345 271.466 262.804 271.653 262.375 272.026C261.945 272.39 261.679 272.88 261.577 273.496H266.253C266.15 272.833 265.889 272.329 265.469 271.984C265.049 271.639 264.559 271.466 263.999 271.466Z" fill="#4991FF"/>
<path d="M278.853 267.7V269.548H276.207V277.5H274.275V269.548H271.643V267.7H278.853ZM280.102 274.742C280.345 275.619 281.003 276.058 282.076 276.058C282.767 276.058 283.289 275.825 283.644 275.358L285.1 276.198C284.409 277.197 283.392 277.696 282.048 277.696C280.891 277.696 279.962 277.346 279.262 276.646C278.562 275.946 278.212 275.064 278.212 274C278.212 272.945 278.557 272.068 279.248 271.368C279.939 270.659 280.825 270.304 281.908 270.304C282.935 270.304 283.779 270.659 284.442 271.368C285.114 272.077 285.45 272.955 285.45 274C285.45 274.233 285.427 274.481 285.38 274.742H280.102ZM280.074 273.342H283.644C283.541 272.866 283.327 272.511 283 272.278C282.683 272.045 282.319 271.928 281.908 271.928C281.423 271.928 281.021 272.054 280.704 272.306C280.387 272.549 280.177 272.894 280.074 273.342ZM288.517 271.704C288.685 271.256 288.96 270.92 289.343 270.696C289.735 270.472 290.169 270.36 290.645 270.36V272.376C290.094 272.311 289.599 272.423 289.161 272.712C288.731 273.001 288.517 273.482 288.517 274.154V277.5H286.711V270.5H288.517V271.704ZM299.443 270.304C300.246 270.304 300.885 270.565 301.361 271.088C301.846 271.611 302.089 272.311 302.089 273.188V277.5H300.283V273.314C300.283 272.894 300.18 272.567 299.975 272.334C299.77 272.101 299.48 271.984 299.107 271.984C298.696 271.984 298.374 272.119 298.141 272.39C297.917 272.661 297.805 273.053 297.805 273.566V277.5H295.999V273.314C295.999 272.894 295.896 272.567 295.691 272.334C295.486 272.101 295.196 271.984 294.823 271.984C294.422 271.984 294.1 272.119 293.857 272.39C293.624 272.661 293.507 273.053 293.507 273.566V277.5H291.701V270.5H293.507V271.242C293.927 270.617 294.576 270.304 295.453 270.304C296.312 270.304 296.946 270.64 297.357 271.312C297.824 270.64 298.519 270.304 299.443 270.304ZM305.289 272.488C305.289 272.675 305.41 272.829 305.653 272.95C305.905 273.062 306.208 273.165 306.563 273.258C306.918 273.342 307.272 273.454 307.627 273.594C307.982 273.725 308.28 273.949 308.523 274.266C308.775 274.583 308.901 274.98 308.901 275.456C308.901 276.175 308.63 276.73 308.089 277.122C307.557 277.505 306.89 277.696 306.087 277.696C304.65 277.696 303.67 277.141 303.147 276.03L304.715 275.148C304.92 275.755 305.378 276.058 306.087 276.058C306.731 276.058 307.053 275.857 307.053 275.456C307.053 275.269 306.927 275.12 306.675 275.008C306.432 274.887 306.134 274.779 305.779 274.686C305.424 274.593 305.07 274.476 304.715 274.336C304.36 274.196 304.057 273.977 303.805 273.678C303.562 273.37 303.441 272.987 303.441 272.53C303.441 271.839 303.693 271.298 304.197 270.906C304.71 270.505 305.345 270.304 306.101 270.304C306.67 270.304 307.188 270.435 307.655 270.696C308.122 270.948 308.49 271.312 308.761 271.788L307.221 272.628C306.997 272.152 306.624 271.914 306.101 271.914C305.868 271.914 305.672 271.965 305.513 272.068C305.364 272.171 305.289 272.311 305.289 272.488ZM319.595 276.632C318.876 277.341 317.999 277.696 316.963 277.696C315.927 277.696 315.049 277.341 314.331 276.632C313.621 275.913 313.267 275.036 313.267 274C313.267 272.964 313.621 272.091 314.331 271.382C315.049 270.663 315.927 270.304 316.963 270.304C317.999 270.304 318.876 270.663 319.595 271.382C320.313 272.091 320.673 272.964 320.673 274C320.673 275.036 320.313 275.913 319.595 276.632ZM315.605 275.386C315.969 275.75 316.421 275.932 316.963 275.932C317.504 275.932 317.957 275.75 318.321 275.386C318.685 275.022 318.867 274.56 318.867 274C318.867 273.44 318.685 272.978 318.321 272.614C317.957 272.25 317.504 272.068 316.963 272.068C316.421 272.068 315.969 272.25 315.605 272.614C315.25 272.978 315.073 273.44 315.073 274C315.073 274.56 315.25 275.022 315.605 275.386ZM325.49 269.24C324.501 269.165 324.006 269.562 324.006 270.43V270.5H325.49V272.236H324.006V277.5H322.2V272.236H321.192V270.5H322.2V270.43C322.2 269.441 322.476 268.689 323.026 268.176C323.577 267.663 324.398 267.439 325.49 267.504V269.24ZM333.248 277.696C332.278 277.696 331.461 277.481 330.798 277.052C330.136 276.613 329.669 276.021 329.398 275.274L331.05 274.308C331.433 275.307 332.184 275.806 333.304 275.806C333.846 275.806 334.242 275.708 334.494 275.512C334.746 275.316 334.872 275.069 334.872 274.77C334.872 274.425 334.718 274.159 334.41 273.972C334.102 273.776 333.552 273.566 332.758 273.342C332.32 273.211 331.946 273.081 331.638 272.95C331.34 272.819 331.036 272.647 330.728 272.432C330.43 272.208 330.201 271.928 330.042 271.592C329.884 271.256 329.804 270.864 329.804 270.416C329.804 269.529 330.117 268.825 330.742 268.302C331.377 267.77 332.138 267.504 333.024 267.504C333.818 267.504 334.513 267.7 335.11 268.092C335.717 268.475 336.188 269.011 336.524 269.702L334.9 270.64C334.508 269.8 333.883 269.38 333.024 269.38C332.623 269.38 332.306 269.473 332.072 269.66C331.848 269.837 331.736 270.071 331.736 270.36C331.736 270.668 331.862 270.92 332.114 271.116C332.376 271.303 332.87 271.508 333.598 271.732C333.897 271.825 334.121 271.9 334.27 271.956C334.429 272.003 334.639 272.082 334.9 272.194C335.171 272.297 335.376 272.395 335.516 272.488C335.666 272.581 335.834 272.707 336.02 272.866C336.207 273.025 336.347 273.188 336.44 273.356C336.543 273.524 336.627 273.729 336.692 273.972C336.767 274.205 336.804 274.462 336.804 274.742C336.804 275.647 336.473 276.366 335.81 276.898C335.157 277.43 334.303 277.696 333.248 277.696ZM339.698 274.742C339.94 275.619 340.598 276.058 341.672 276.058C342.362 276.058 342.885 275.825 343.24 275.358L344.696 276.198C344.005 277.197 342.988 277.696 341.644 277.696C340.486 277.696 339.558 277.346 338.858 276.646C338.158 275.946 337.808 275.064 337.808 274C337.808 272.945 338.153 272.068 338.844 271.368C339.534 270.659 340.421 270.304 341.504 270.304C342.53 270.304 343.375 270.659 344.038 271.368C344.71 272.077 345.046 272.955 345.046 274C345.046 274.233 345.022 274.481 344.976 274.742H339.698ZM339.67 273.342H343.24C343.137 272.866 342.922 272.511 342.596 272.278C342.278 272.045 341.914 271.928 341.504 271.928C341.018 271.928 340.617 272.054 340.3 272.306C339.982 272.549 339.772 272.894 339.67 273.342ZM348.112 271.704C348.28 271.256 348.556 270.92 348.938 270.696C349.33 270.472 349.764 270.36 350.24 270.36V272.376C349.69 272.311 349.195 272.423 348.756 272.712C348.327 273.001 348.112 273.482 348.112 274.154V277.5H346.306V270.5H348.112V271.704ZM355.903 270.5H357.891L355.231 277.5H353.173L350.513 270.5H352.501L354.195 275.4L355.903 270.5ZM359.658 269.66C359.359 269.66 359.098 269.553 358.874 269.338C358.659 269.114 358.552 268.853 358.552 268.554C358.552 268.255 358.659 267.994 358.874 267.77C359.098 267.546 359.359 267.434 359.658 267.434C359.966 267.434 360.227 267.546 360.442 267.77C360.666 267.994 360.778 268.255 360.778 268.554C360.778 268.853 360.666 269.114 360.442 269.338C360.227 269.553 359.966 269.66 359.658 269.66ZM358.762 277.5V270.5H360.568V277.5H358.762ZM365.553 277.696C364.498 277.696 363.616 277.341 362.907 276.632C362.207 275.923 361.857 275.045 361.857 274C361.857 272.955 362.207 272.077 362.907 271.368C363.616 270.659 364.498 270.304 365.553 270.304C366.234 270.304 366.855 270.467 367.415 270.794C367.975 271.121 368.399 271.559 368.689 272.11L367.135 273.02C366.995 272.731 366.78 272.502 366.491 272.334C366.211 272.166 365.893 272.082 365.539 272.082C364.997 272.082 364.549 272.264 364.195 272.628C363.84 272.983 363.663 273.44 363.663 274C363.663 274.551 363.84 275.008 364.195 275.372C364.549 275.727 364.997 275.904 365.539 275.904C365.903 275.904 366.225 275.825 366.505 275.666C366.794 275.498 367.009 275.269 367.149 274.98L368.717 275.876C368.409 276.427 367.975 276.87 367.415 277.206C366.855 277.533 366.234 277.696 365.553 277.696ZM371.088 274.742C371.331 275.619 371.989 276.058 373.062 276.058C373.753 276.058 374.276 275.825 374.63 275.358L376.086 276.198C375.396 277.197 374.378 277.696 373.034 277.696C371.877 277.696 370.948 277.346 370.248 276.646C369.548 275.946 369.198 275.064 369.198 274C369.198 272.945 369.544 272.068 370.234 271.368C370.925 270.659 371.812 270.304 372.894 270.304C373.921 270.304 374.766 270.659 375.428 271.368C376.1 272.077 376.436 272.955 376.436 274C376.436 274.233 376.413 274.481 376.366 274.742H371.088ZM371.06 273.342H374.63C374.528 272.866 374.313 272.511 373.986 272.278C373.669 272.045 373.305 271.928 372.894 271.928C372.409 271.928 372.008 272.054 371.69 272.306C371.373 272.549 371.163 272.894 371.06 273.342ZM379.517 275.568L378.467 279.46H376.997L377.557 275.568H379.517ZM56.564 287.7C57.5067 287.7 58.3 288.017 58.944 288.652C59.588 289.287 59.91 290.066 59.91 290.99C59.91 291.914 59.588 292.693 58.944 293.328C58.3 293.963 57.5067 294.28 56.564 294.28H54.842V297.5H52.91V287.7H56.564ZM56.564 292.474C56.9747 292.474 57.3153 292.334 57.586 292.054C57.8567 291.765 57.992 291.41 57.992 290.99C57.992 290.561 57.8567 290.206 57.586 289.926C57.3153 289.646 56.9747 289.506 56.564 289.506H54.842V292.474H56.564ZM62.7394 291.704C62.9074 291.256 63.1828 290.92 63.5654 290.696C63.9574 290.472 64.3914 290.36 64.8674 290.36V292.376C64.3168 292.311 63.8221 292.423 63.3834 292.712C62.9541 293.001 62.7394 293.482 62.7394 294.154V297.5H60.9334V290.5H62.7394V291.704ZM66.8197 289.66C66.521 289.66 66.2597 289.553 66.0357 289.338C65.821 289.114 65.7137 288.853 65.7137 288.554C65.7137 288.255 65.821 287.994 66.0357 287.77C66.2597 287.546 66.521 287.434 66.8197 287.434C67.1277 287.434 67.389 287.546 67.6037 287.77C67.8277 287.994 67.9397 288.255 67.9397 288.554C67.9397 288.853 67.8277 289.114 67.6037 289.338C67.389 289.553 67.1277 289.66 66.8197 289.66ZM65.9237 297.5V290.5H67.7297V297.5H65.9237ZM73.9886 290.5H75.9766L73.3166 297.5H71.2586L68.5986 290.5H70.5866L72.2806 295.4L73.9886 290.5ZM81.894 290.5H83.7V297.5H81.894V296.674C81.3527 297.355 80.592 297.696 79.612 297.696C78.6787 297.696 77.876 297.341 77.204 296.632C76.5414 295.913 76.21 295.036 76.21 294C76.21 292.964 76.5414 292.091 77.204 291.382C77.876 290.663 78.6787 290.304 79.612 290.304C80.592 290.304 81.3527 290.645 81.894 291.326V290.5ZM78.562 295.428C78.926 295.792 79.388 295.974 79.948 295.974C80.508 295.974 80.97 295.792 81.334 295.428C81.7074 295.055 81.894 294.579 81.894 294C81.894 293.421 81.7074 292.95 81.334 292.586C80.97 292.213 80.508 292.026 79.948 292.026C79.388 292.026 78.926 292.213 78.562 292.586C78.198 292.95 78.016 293.421 78.016 294C78.016 294.579 78.198 295.055 78.562 295.428ZM88.6697 297.696C87.6151 297.696 86.7331 297.341 86.0237 296.632C85.3237 295.923 84.9737 295.045 84.9737 294C84.9737 292.955 85.3237 292.077 86.0237 291.368C86.7331 290.659 87.6151 290.304 88.6697 290.304C89.3511 290.304 89.9717 290.467 90.5317 290.794C91.0917 291.121 91.5164 291.559 91.8057 292.11L90.2517 293.02C90.1117 292.731 89.8971 292.502 89.6077 292.334C89.3277 292.166 89.0104 292.082 88.6557 292.082C88.1144 292.082 87.6664 292.264 87.3117 292.628C86.9571 292.983 86.7797 293.44 86.7797 294C86.7797 294.551 86.9571 295.008 87.3117 295.372C87.6664 295.727 88.1144 295.904 88.6557 295.904C89.0197 295.904 89.3417 295.825 89.6217 295.666C89.9111 295.498 90.1257 295.269 90.2657 294.98L91.8337 295.876C91.5257 296.427 91.0917 296.87 90.5317 297.206C89.9717 297.533 89.3511 297.696 88.6697 297.696ZM97.4076 290.5H99.3396L96.7916 297.5C96.4276 298.508 95.9422 299.236 95.3356 299.684C94.7382 300.141 93.9916 300.347 93.0956 300.3V298.62C93.5809 298.629 93.9636 298.527 94.2436 298.312C94.5329 298.097 94.7616 297.752 94.9296 297.276L92.0596 290.5H94.0336L95.8536 295.204L97.4076 290.5ZM107.437 287.7C108.38 287.7 109.173 288.017 109.817 288.652C110.461 289.287 110.783 290.066 110.783 290.99C110.783 291.914 110.461 292.693 109.817 293.328C109.173 293.963 108.38 294.28 107.437 294.28H105.715V297.5H103.783V287.7H107.437ZM107.437 292.474C107.848 292.474 108.188 292.334 108.459 292.054C108.73 291.765 108.865 291.41 108.865 290.99C108.865 290.561 108.73 290.206 108.459 289.926C108.188 289.646 107.848 289.506 107.437 289.506H105.715V292.474H107.437ZM117.456 296.632C116.737 297.341 115.86 297.696 114.824 297.696C113.788 297.696 112.911 297.341 112.192 296.632C111.483 295.913 111.128 295.036 111.128 294C111.128 292.964 111.483 292.091 112.192 291.382C112.911 290.663 113.788 290.304 114.824 290.304C115.86 290.304 116.737 290.663 117.456 291.382C118.175 292.091 118.534 292.964 118.534 294C118.534 295.036 118.175 295.913 117.456 296.632ZM113.466 295.386C113.83 295.75 114.283 295.932 114.824 295.932C115.365 295.932 115.818 295.75 116.182 295.386C116.546 295.022 116.728 294.56 116.728 294C116.728 293.44 116.546 292.978 116.182 292.614C115.818 292.25 115.365 292.068 114.824 292.068C114.283 292.068 113.83 292.25 113.466 292.614C113.111 292.978 112.934 293.44 112.934 294C112.934 294.56 113.111 295.022 113.466 295.386ZM119.805 297.5V287.28H121.611V297.5H119.805ZM124.16 289.66C123.861 289.66 123.6 289.553 123.376 289.338C123.161 289.114 123.054 288.853 123.054 288.554C123.054 288.255 123.161 287.994 123.376 287.77C123.6 287.546 123.861 287.434 124.16 287.434C124.468 287.434 124.729 287.546 124.944 287.77C125.168 287.994 125.28 288.255 125.28 288.554C125.28 288.853 125.168 289.114 124.944 289.338C124.729 289.553 124.468 289.66 124.16 289.66ZM123.264 297.5V290.5H125.07V297.5H123.264ZM130.054 297.696C129 297.696 128.118 297.341 127.408 296.632C126.708 295.923 126.358 295.045 126.358 294C126.358 292.955 126.708 292.077 127.408 291.368C128.118 290.659 129 290.304 130.054 290.304C130.736 290.304 131.356 290.467 131.916 290.794C132.476 291.121 132.901 291.559 133.19 292.11L131.636 293.02C131.496 292.731 131.282 292.502 130.992 292.334C130.712 292.166 130.395 292.082 130.04 292.082C129.499 292.082 129.051 292.264 128.696 292.628C128.342 292.983 128.164 293.44 128.164 294C128.164 294.551 128.342 295.008 128.696 295.372C129.051 295.727 129.499 295.904 130.04 295.904C130.404 295.904 130.726 295.825 131.006 295.666C131.296 295.498 131.51 295.269 131.65 294.98L133.218 295.876C132.91 296.427 132.476 296.87 131.916 297.206C131.356 297.533 130.736 297.696 130.054 297.696ZM138.792 290.5H140.724L138.176 297.5C137.812 298.508 137.327 299.236 136.72 299.684C136.123 300.141 135.376 300.347 134.48 300.3V298.62C134.966 298.629 135.348 298.527 135.628 298.312C135.918 298.097 136.146 297.752 136.314 297.276L133.444 290.5H135.418L137.238 295.204L138.792 290.5ZM150.978 290.5H152.196V297.5H150.978V296.296C150.371 297.22 149.489 297.682 148.332 297.682C147.352 297.682 146.516 297.327 145.826 296.618C145.135 295.899 144.79 295.027 144.79 294C144.79 292.973 145.135 292.105 145.826 291.396C146.516 290.677 147.352 290.318 148.332 290.318C149.489 290.318 150.371 290.78 150.978 291.704V290.5ZM148.486 296.506C149.195 296.506 149.788 296.268 150.264 295.792C150.74 295.307 150.978 294.709 150.978 294C150.978 293.291 150.74 292.698 150.264 292.222C149.788 291.737 149.195 291.494 148.486 291.494C147.786 291.494 147.198 291.737 146.722 292.222C146.246 292.698 146.008 293.291 146.008 294C146.008 294.709 146.246 295.307 146.722 295.792C147.198 296.268 147.786 296.506 148.486 296.506ZM157.527 290.318C158.349 290.318 159.007 290.579 159.501 291.102C159.996 291.615 160.243 292.315 160.243 293.202V297.5H159.025V293.272C159.025 292.703 158.871 292.264 158.563 291.956C158.255 291.639 157.831 291.48 157.289 291.48C156.683 291.48 156.193 291.671 155.819 292.054C155.446 292.427 155.259 293.006 155.259 293.79V297.5H154.041V290.5H155.259V291.508C155.754 290.715 156.51 290.318 157.527 290.318ZM167.74 287.7H168.958V297.5H167.74V296.296C167.133 297.22 166.251 297.682 165.094 297.682C164.114 297.682 163.278 297.327 162.588 296.618C161.897 295.899 161.552 295.027 161.552 294C161.552 292.973 161.897 292.105 162.588 291.396C163.278 290.677 164.114 290.318 165.094 290.318C166.251 290.318 167.133 290.78 167.74 291.704V287.7ZM165.248 296.506C165.957 296.506 166.55 296.268 167.026 295.792C167.502 295.307 167.74 294.709 167.74 294C167.74 293.291 167.502 292.698 167.026 292.222C166.55 291.737 165.957 291.494 165.248 291.494C164.548 291.494 163.96 291.737 163.484 292.222C163.008 292.698 162.77 293.291 162.77 294C162.77 294.709 163.008 295.307 163.484 295.792C163.96 296.268 164.548 296.506 165.248 296.506ZM180.631 296.744C179.95 297.369 179.068 297.682 177.985 297.682C176.902 297.682 176.016 297.369 175.325 296.744C174.644 296.109 174.303 295.265 174.303 294.21V287.7H175.605V294.154C175.605 294.845 175.81 295.395 176.221 295.806C176.632 296.207 177.22 296.408 177.985 296.408C178.75 296.408 179.338 296.207 179.749 295.806C180.16 295.395 180.365 294.845 180.365 294.154V287.7H181.653V294.21C181.653 295.265 181.312 296.109 180.631 296.744ZM184.499 292.39C184.499 292.661 184.635 292.88 184.905 293.048C185.176 293.207 185.503 293.337 185.885 293.44C186.268 293.533 186.651 293.645 187.033 293.776C187.416 293.897 187.743 294.112 188.013 294.42C188.284 294.719 188.419 295.106 188.419 295.582C188.419 296.217 188.172 296.725 187.677 297.108C187.192 297.491 186.567 297.682 185.801 297.682C185.12 297.682 184.537 297.533 184.051 297.234C183.566 296.935 183.221 296.539 183.015 296.044L184.065 295.442C184.177 295.778 184.387 296.044 184.695 296.24C185.003 296.436 185.372 296.534 185.801 296.534C186.203 296.534 186.534 296.459 186.795 296.31C187.057 296.151 187.187 295.909 187.187 295.582C187.187 295.311 187.052 295.097 186.781 294.938C186.511 294.77 186.184 294.639 185.801 294.546C185.419 294.443 185.036 294.327 184.653 294.196C184.271 294.065 183.944 293.851 183.673 293.552C183.403 293.253 183.267 292.871 183.267 292.404C183.267 291.797 183.501 291.298 183.967 290.906C184.443 290.514 185.036 290.318 185.745 290.318C186.315 290.318 186.819 290.449 187.257 290.71C187.705 290.962 188.041 291.317 188.265 291.774L187.243 292.348C186.991 291.751 186.492 291.452 185.745 291.452C185.4 291.452 185.106 291.536 184.863 291.704C184.621 291.863 184.499 292.091 184.499 292.39ZM190.524 294.56C190.645 295.185 190.93 295.671 191.378 296.016C191.835 296.361 192.395 296.534 193.058 296.534C193.982 296.534 194.654 296.193 195.074 295.512L196.11 296.1C195.429 297.155 194.402 297.682 193.03 297.682C191.919 297.682 191.014 297.337 190.314 296.646C189.623 295.946 189.278 295.064 189.278 294C189.278 292.945 189.619 292.068 190.3 291.368C190.981 290.668 191.863 290.318 192.946 290.318C193.973 290.318 194.808 290.682 195.452 291.41C196.105 292.129 196.432 292.997 196.432 294.014C196.432 294.191 196.418 294.373 196.39 294.56H190.524ZM192.946 291.466C192.293 291.466 191.751 291.653 191.322 292.026C190.893 292.39 190.627 292.88 190.524 293.496H195.2C195.097 292.833 194.836 292.329 194.416 291.984C193.996 291.639 193.506 291.466 192.946 291.466ZM207.24 296.618C206.522 297.327 205.649 297.682 204.622 297.682C203.596 297.682 202.723 297.327 202.004 296.618C201.295 295.909 200.94 295.036 200.94 294C200.94 292.964 201.295 292.091 202.004 291.382C202.723 290.673 203.596 290.318 204.622 290.318C205.649 290.318 206.522 290.673 207.24 291.382C207.959 292.091 208.318 292.964 208.318 294C208.318 295.036 207.959 295.909 207.24 296.618ZM204.622 296.492C205.322 296.492 205.91 296.254 206.386 295.778C206.862 295.302 207.1 294.709 207.1 294C207.1 293.291 206.862 292.698 206.386 292.222C205.91 291.746 205.322 291.508 204.622 291.508C203.932 291.508 203.348 291.746 202.872 292.222C202.396 292.698 202.158 293.291 202.158 294C202.158 294.709 202.396 295.302 202.872 295.778C203.348 296.254 203.932 296.492 204.622 296.492ZM213.092 288.694C211.86 288.591 211.244 289.123 211.244 290.29V290.5H213.092V291.676H211.244V297.5H210.026V291.676H208.906V290.5H210.026V290.29C210.026 289.347 210.288 288.633 210.81 288.148C211.342 287.663 212.103 287.453 213.092 287.518V288.694ZM222.252 297.682C220.768 297.682 219.54 297.192 218.57 296.212C217.608 295.232 217.128 294.028 217.128 292.6C217.128 291.172 217.608 289.968 218.57 288.988C219.54 288.008 220.768 287.518 222.252 287.518C223.148 287.518 223.969 287.733 224.716 288.162C225.472 288.591 226.06 289.17 226.48 289.898L225.346 290.556C225.066 290.015 224.646 289.585 224.086 289.268C223.535 288.941 222.924 288.778 222.252 288.778C221.122 288.778 220.198 289.142 219.48 289.87C218.77 290.598 218.416 291.508 218.416 292.6C218.416 293.683 218.77 294.588 219.48 295.316C220.198 296.044 221.122 296.408 222.252 296.408C222.924 296.408 223.535 296.249 224.086 295.932C224.646 295.605 225.066 295.176 225.346 294.644L226.48 295.288C226.069 296.016 225.486 296.599 224.73 297.038C223.974 297.467 223.148 297.682 222.252 297.682ZM233.709 296.618C232.99 297.327 232.118 297.682 231.091 297.682C230.064 297.682 229.192 297.327 228.473 296.618C227.764 295.909 227.409 295.036 227.409 294C227.409 292.964 227.764 292.091 228.473 291.382C229.192 290.673 230.064 290.318 231.091 290.318C232.118 290.318 232.99 290.673 233.709 291.382C234.428 292.091 234.787 292.964 234.787 294C234.787 295.036 234.428 295.909 233.709 296.618ZM231.091 296.492C231.791 296.492 232.379 296.254 232.855 295.778C233.331 295.302 233.569 294.709 233.569 294C233.569 293.291 233.331 292.698 232.855 292.222C232.379 291.746 231.791 291.508 231.091 291.508C230.4 291.508 229.817 291.746 229.341 292.222C228.865 292.698 228.627 293.291 228.627 294C228.627 294.709 228.865 295.302 229.341 295.778C229.817 296.254 230.4 296.492 231.091 296.492ZM242.131 296.618C241.412 297.327 240.539 297.682 239.513 297.682C238.486 297.682 237.613 297.327 236.895 296.618C236.185 295.909 235.831 295.036 235.831 294C235.831 292.964 236.185 292.091 236.895 291.382C237.613 290.673 238.486 290.318 239.513 290.318C240.539 290.318 241.412 290.673 242.131 291.382C242.849 292.091 243.209 292.964 243.209 294C243.209 295.036 242.849 295.909 242.131 296.618ZM239.513 296.492C240.213 296.492 240.801 296.254 241.277 295.778C241.753 295.302 241.991 294.709 241.991 294C241.991 293.291 241.753 292.698 241.277 292.222C240.801 291.746 240.213 291.508 239.513 291.508C238.822 291.508 238.239 291.746 237.763 292.222C237.287 292.698 237.049 293.291 237.049 294C237.049 294.709 237.287 295.302 237.763 295.778C238.239 296.254 238.822 296.492 239.513 296.492ZM250.567 297.5H249.055L245.863 294.182V297.5H244.645V287.7H245.863V293.594L248.887 290.5H250.455L247.109 293.888L250.567 297.5ZM252.315 289.226C252.082 289.226 251.886 289.147 251.727 288.988C251.569 288.829 251.489 288.638 251.489 288.414C251.489 288.19 251.569 287.999 251.727 287.84C251.886 287.672 252.082 287.588 252.315 287.588C252.539 287.588 252.731 287.672 252.889 287.84C253.048 287.999 253.127 288.19 253.127 288.414C253.127 288.638 253.048 288.829 252.889 288.988C252.731 289.147 252.539 289.226 252.315 289.226ZM251.699 297.5V290.5H252.917V297.5H251.699ZM255.63 294.56C255.751 295.185 256.036 295.671 256.484 296.016C256.941 296.361 257.501 296.534 258.164 296.534C259.088 296.534 259.76 296.193 260.18 295.512L261.216 296.1C260.534 297.155 259.508 297.682 258.136 297.682C257.025 297.682 256.12 297.337 255.42 296.646C254.729 295.946 254.384 295.064 254.384 294C254.384 292.945 254.724 292.068 255.406 291.368C256.087 290.668 256.969 290.318 258.052 290.318C259.078 290.318 259.914 290.682 260.558 291.41C261.211 292.129 261.538 292.997 261.538 294.014C261.538 294.191 261.524 294.373 261.496 294.56H255.63ZM258.052 291.466C257.398 291.466 256.857 291.653 256.428 292.026C255.998 292.39 255.732 292.88 255.63 293.496H260.306C260.203 292.833 259.942 292.329 259.522 291.984C259.102 291.639 258.612 291.466 258.052 291.466ZM263.714 292.39C263.714 292.661 263.85 292.88 264.12 293.048C264.391 293.207 264.718 293.337 265.1 293.44C265.483 293.533 265.866 293.645 266.248 293.776C266.631 293.897 266.958 294.112 267.228 294.42C267.499 294.719 267.634 295.106 267.634 295.582C267.634 296.217 267.387 296.725 266.892 297.108C266.407 297.491 265.782 297.682 265.016 297.682C264.335 297.682 263.752 297.533 263.266 297.234C262.781 296.935 262.436 296.539 262.23 296.044L263.28 295.442C263.392 295.778 263.602 296.044 263.91 296.24C264.218 296.436 264.587 296.534 265.016 296.534C265.418 296.534 265.749 296.459 266.01 296.31C266.272 296.151 266.402 295.909 266.402 295.582C266.402 295.311 266.267 295.097 265.996 294.938C265.726 294.77 265.399 294.639 265.016 294.546C264.634 294.443 264.251 294.327 263.868 294.196C263.486 294.065 263.159 293.851 262.888 293.552C262.618 293.253 262.482 292.871 262.482 292.404C262.482 291.797 262.716 291.298 263.182 290.906C263.658 290.514 264.251 290.318 264.96 290.318C265.53 290.318 266.034 290.449 266.472 290.71C266.92 290.962 267.256 291.317 267.48 291.774L266.458 292.348C266.206 291.751 265.707 291.452 264.96 291.452C264.615 291.452 264.321 291.536 264.078 291.704C263.836 291.863 263.714 292.091 263.714 292.39ZM269.696 297.654C269.444 297.654 269.229 297.565 269.052 297.388C268.875 297.211 268.786 296.996 268.786 296.744C268.786 296.492 268.875 296.277 269.052 296.1C269.229 295.923 269.444 295.834 269.696 295.834C269.957 295.834 270.172 295.923 270.34 296.1C270.517 296.277 270.606 296.492 270.606 296.744C270.606 296.996 270.517 297.211 270.34 297.388C270.172 297.565 269.957 297.654 269.696 297.654Z" fill="#3284FF"/>
<path d="M69.948 64.6C70.724 64.6 71.368 64.86 71.88 65.38C72.4 65.892 72.66 66.532 72.66 67.3C72.66 68.06 72.4 68.7 71.88 69.22C71.368 69.74 70.724 70 69.948 70H68.016V73H66.9V64.6H69.948ZM69.948 68.956C70.412 68.956 70.796 68.8 71.1 68.488C71.404 68.168 71.556 67.772 71.556 67.3C71.556 66.82 71.404 66.424 71.1 66.112C70.796 65.8 70.412 65.644 69.948 65.644H68.016V68.956H69.948ZM78.3811 67H79.4251V73H78.3811V71.968C77.8611 72.76 77.1051 73.156 76.1131 73.156C75.2731 73.156 74.5571 72.852 73.9651 72.244C73.3731 71.628 73.0771 70.88 73.0771 70C73.0771 69.12 73.3731 68.376 73.9651 67.768C74.5571 67.152 75.2731 66.844 76.1131 66.844C77.1051 66.844 77.8611 67.24 78.3811 68.032V67ZM76.2451 72.148C76.8531 72.148 77.3611 71.944 77.7691 71.536C78.1771 71.12 78.3811 70.608 78.3811 70C78.3811 69.392 78.1771 68.884 77.7691 68.476C77.3611 68.06 76.8531 67.852 76.2451 67.852C75.6451 67.852 75.1411 68.06 74.7331 68.476C74.3251 68.884 74.1211 69.392 74.1211 70C74.1211 70.608 74.3251 71.12 74.7331 71.536C75.1411 71.944 75.6451 72.148 76.2451 72.148ZM81.8951 68.62C81.8951 68.852 82.0111 69.04 82.2431 69.184C82.4751 69.32 82.7551 69.432 83.0831 69.52C83.4111 69.6 83.7391 69.696 84.0671 69.808C84.3951 69.912 84.6751 70.096 84.9071 70.36C85.1391 70.616 85.2551 70.948 85.2551 71.356C85.2551 71.9 85.0431 72.336 84.6191 72.664C84.2031 72.992 83.6671 73.156 83.0111 73.156C82.4271 73.156 81.9271 73.028 81.5111 72.772C81.0951 72.516 80.7991 72.176 80.6231 71.752L81.5231 71.236C81.6191 71.524 81.7991 71.752 82.0631 71.92C82.3271 72.088 82.6431 72.172 83.0111 72.172C83.3551 72.172 83.6391 72.108 83.8631 71.98C84.0871 71.844 84.1991 71.636 84.1991 71.356C84.1991 71.124 84.0831 70.94 83.8511 70.804C83.6191 70.66 83.3391 70.548 83.0111 70.468C82.6831 70.38 82.3551 70.28 82.0271 70.168C81.6991 70.056 81.4191 69.872 81.1871 69.616C80.9551 69.36 80.8391 69.032 80.8391 68.632C80.8391 68.112 81.0391 67.684 81.4391 67.348C81.8471 67.012 82.3551 66.844 82.9631 66.844C83.4511 66.844 83.8831 66.956 84.2591 67.18C84.6431 67.396 84.9311 67.7 85.1231 68.092L84.2471 68.584C84.0311 68.072 83.6031 67.816 82.9631 67.816C82.6671 67.816 82.4151 67.888 82.2071 68.032C81.9991 68.168 81.8951 68.364 81.8951 68.62ZM89.5208 68.008H87.9248V71.26C87.9248 71.556 87.9808 71.768 88.0928 71.896C88.2128 72.016 88.3928 72.08 88.6328 72.088C88.8728 72.088 89.1688 72.08 89.5208 72.064V73C88.6088 73.12 87.9408 73.048 87.5168 72.784C87.0928 72.512 86.8808 72.004 86.8808 71.26V68.008H85.6928V67H86.8808V65.632L87.9248 65.32V67H89.5208V68.008ZM91.1842 70.48C91.2882 71.016 91.5322 71.432 91.9162 71.728C92.3082 72.024 92.7882 72.172 93.3562 72.172C94.1482 72.172 94.7242 71.88 95.0842 71.296L95.9722 71.8C95.3882 72.704 94.5082 73.156 93.3322 73.156C92.3802 73.156 91.6042 72.86 91.0042 72.268C90.4122 71.668 90.1162 70.912 90.1162 70C90.1162 69.096 90.4082 68.344 90.9922 67.744C91.5762 67.144 92.3322 66.844 93.2602 66.844C94.1402 66.844 94.8562 67.156 95.4082 67.78C95.9682 68.396 96.2482 69.14 96.2482 70.012C96.2482 70.164 96.2362 70.32 96.2122 70.48H91.1842ZM93.2602 67.828C92.7002 67.828 92.2362 67.988 91.8682 68.308C91.5002 68.62 91.2722 69.04 91.1842 69.568H95.1922C95.1042 69 94.8802 68.568 94.5202 68.272C94.1602 67.976 93.7402 67.828 93.2602 67.828ZM105.872 72.352C105.288 72.888 104.532 73.156 103.604 73.156C102.676 73.156 101.916 72.888 101.324 72.352C100.74 71.808 100.448 71.084 100.448 70.18V64.6H101.564V70.132C101.564 70.724 101.74 71.196 102.092 71.548C102.444 71.892 102.948 72.064 103.604 72.064C104.26 72.064 104.764 71.892 105.116 71.548C105.468 71.196 105.644 70.724 105.644 70.132V64.6H106.748V70.18C106.748 71.084 106.456 71.808 105.872 72.352ZM113.435 73L111.551 69.784H109.571V73H108.455V64.6H111.815C112.535 64.6 113.151 64.856 113.663 65.368C114.175 65.872 114.431 66.484 114.431 67.204C114.431 67.748 114.267 68.244 113.939 68.692C113.619 69.14 113.203 69.456 112.691 69.64L114.671 73H113.435ZM109.571 65.644V68.776H111.815C112.231 68.776 112.583 68.624 112.871 68.32C113.167 68.008 113.315 67.636 113.315 67.204C113.315 66.772 113.167 66.404 112.871 66.1C112.583 65.796 112.231 65.644 111.815 65.644H109.571ZM116.907 71.944H120.531V73H115.791V64.6H116.907V71.944ZM127.53 66.844C128.234 66.844 128.798 67.068 129.222 67.516C129.646 67.956 129.858 68.556 129.858 69.316V73H128.814V69.376C128.814 68.888 128.682 68.512 128.418 68.248C128.154 67.976 127.79 67.84 127.326 67.84C126.806 67.84 126.386 68.004 126.066 68.332C125.746 68.652 125.586 69.148 125.586 69.82V73H124.542V64.6H125.586V67.864C126.01 67.184 126.658 66.844 127.53 66.844ZM132.047 70.48C132.151 71.016 132.395 71.432 132.779 71.728C133.171 72.024 133.651 72.172 134.219 72.172C135.011 72.172 135.587 71.88 135.947 71.296L136.835 71.8C136.251 72.704 135.371 73.156 134.195 73.156C133.243 73.156 132.467 72.86 131.867 72.268C131.275 71.668 130.979 70.912 130.979 70C130.979 69.096 131.271 68.344 131.855 67.744C132.439 67.144 133.195 66.844 134.123 66.844C135.003 66.844 135.719 67.156 136.271 67.78C136.831 68.396 137.111 69.14 137.111 70.012C137.111 70.164 137.099 70.32 137.075 70.48H132.047ZM134.123 67.828C133.563 67.828 133.099 67.988 132.731 68.308C132.363 68.62 132.135 69.04 132.047 69.568H136.055C135.967 69 135.743 68.568 135.383 68.272C135.023 67.976 134.603 67.828 134.123 67.828ZM139.356 68.008C139.7 67.264 140.324 66.892 141.228 66.892V67.984C140.716 67.96 140.276 68.096 139.908 68.392C139.54 68.688 139.356 69.164 139.356 69.82V73H138.312V67H139.356V68.008ZM142.653 70.48C142.757 71.016 143.001 71.432 143.385 71.728C143.777 72.024 144.257 72.172 144.825 72.172C145.617 72.172 146.193 71.88 146.553 71.296L147.441 71.8C146.857 72.704 145.977 73.156 144.801 73.156C143.849 73.156 143.073 72.86 142.473 72.268C141.881 71.668 141.585 70.912 141.585 70C141.585 69.096 141.877 68.344 142.461 67.744C143.045 67.144 143.801 66.844 144.729 66.844C145.609 66.844 146.325 67.156 146.877 67.78C147.437 68.396 147.717 69.14 147.717 70.012C147.717 70.164 147.705 70.32 147.681 70.48H142.653ZM144.729 67.828C144.169 67.828 143.705 67.988 143.337 68.308C142.969 68.62 142.741 69.04 142.653 69.568H146.661C146.573 69 146.349 68.568 145.989 68.272C145.629 67.976 145.209 67.828 144.729 67.828ZM149.097 73.132C148.881 73.132 148.697 73.056 148.545 72.904C148.393 72.752 148.317 72.568 148.317 72.352C148.317 72.136 148.393 71.952 148.545 71.8C148.697 71.648 148.881 71.572 149.097 71.572C149.321 71.572 149.505 71.648 149.649 71.8C149.801 71.952 149.877 72.136 149.877 72.352C149.877 72.568 149.801 72.752 149.649 72.904C149.505 73.056 149.321 73.132 149.097 73.132ZM152.015 73.132C151.799 73.132 151.615 73.056 151.463 72.904C151.311 72.752 151.235 72.568 151.235 72.352C151.235 72.136 151.311 71.952 151.463 71.8C151.615 71.648 151.799 71.572 152.015 71.572C152.239 71.572 152.423 71.648 152.567 71.8C152.719 71.952 152.795 72.136 152.795 72.352C152.795 72.568 152.719 72.752 152.567 72.904C152.423 73.056 152.239 73.132 152.015 73.132ZM154.932 73.132C154.716 73.132 154.532 73.056 154.38 72.904C154.228 72.752 154.152 72.568 154.152 72.352C154.152 72.136 154.228 71.952 154.38 71.8C154.532 71.648 154.716 71.572 154.932 71.572C155.156 71.572 155.34 71.648 155.484 71.8C155.636 71.952 155.712 72.136 155.712 72.352C155.712 72.568 155.636 72.752 155.484 72.904C155.34 73.056 155.156 73.132 154.932 73.132Z" fill="#3284FF"/>
<rect x="42.5" y="43" width="391" height="54" rx="11.5" stroke="#3284FF"/>
<path d="M67.656 149.682C66.172 149.682 64.9447 149.192 63.974 148.212C63.0127 147.232 62.532 146.028 62.532 144.6C62.532 143.172 63.0127 141.968 63.974 140.988C64.9447 140.008 66.172 139.518 67.656 139.518C68.552 139.518 69.3733 139.733 70.12 140.162C70.876 140.591 71.464 141.17 71.884 141.898L70.75 142.556C70.47 142.015 70.05 141.585 69.49 141.268C68.9393 140.941 68.328 140.778 67.656 140.778C66.5267 140.778 65.6027 141.142 64.884 141.87C64.1747 142.598 63.82 143.508 63.82 144.6C63.82 145.683 64.1747 146.588 64.884 147.316C65.6027 148.044 66.5267 148.408 67.656 148.408C68.328 148.408 68.9393 148.249 69.49 147.932C70.05 147.605 70.47 147.176 70.75 146.644L71.884 147.288C71.4733 148.016 70.89 148.599 70.134 149.038C69.378 149.467 68.552 149.682 67.656 149.682ZM76.7596 142.318C77.5809 142.318 78.2389 142.579 78.7336 143.102C79.2283 143.615 79.4756 144.315 79.4756 145.202V149.5H78.2576V145.272C78.2576 144.703 78.1036 144.264 77.7956 143.956C77.4876 143.639 77.0629 143.48 76.5216 143.48C75.9149 143.48 75.4249 143.671 75.0516 144.054C74.6783 144.427 74.4916 145.006 74.4916 145.79V149.5H73.2736V139.7H74.4916V143.508C74.9863 142.715 75.7423 142.318 76.7596 142.318ZM87.084 148.618C86.3653 149.327 85.4926 149.682 84.466 149.682C83.4393 149.682 82.5666 149.327 81.848 148.618C81.1386 147.909 80.784 147.036 80.784 146C80.784 144.964 81.1386 144.091 81.848 143.382C82.5666 142.673 83.4393 142.318 84.466 142.318C85.4926 142.318 86.3653 142.673 87.084 143.382C87.8026 144.091 88.162 144.964 88.162 146C88.162 147.036 87.8026 147.909 87.084 148.618ZM84.466 148.492C85.166 148.492 85.754 148.254 86.23 147.778C86.706 147.302 86.944 146.709 86.944 146C86.944 145.291 86.706 144.698 86.23 144.222C85.754 143.746 85.166 143.508 84.466 143.508C83.7753 143.508 83.192 143.746 82.716 144.222C82.24 144.698 82.002 145.291 82.002 146C82.002 146.709 82.24 147.302 82.716 147.778C83.192 148.254 83.7753 148.492 84.466 148.492ZM95.5058 148.618C94.7872 149.327 93.9145 149.682 92.8878 149.682C91.8612 149.682 90.9885 149.327 90.2698 148.618C89.5605 147.909 89.2058 147.036 89.2058 146C89.2058 144.964 89.5605 144.091 90.2698 143.382C90.9885 142.673 91.8612 142.318 92.8878 142.318C93.9145 142.318 94.7872 142.673 95.5058 143.382C96.2245 144.091 96.5838 144.964 96.5838 146C96.5838 147.036 96.2245 147.909 95.5058 148.618ZM92.8878 148.492C93.5878 148.492 94.1758 148.254 94.6518 147.778C95.1278 147.302 95.3658 146.709 95.3658 146C95.3658 145.291 95.1278 144.698 94.6518 144.222C94.1758 143.746 93.5878 143.508 92.8878 143.508C92.1972 143.508 91.6138 143.746 91.1378 144.222C90.6618 144.698 90.4238 145.291 90.4238 146C90.4238 146.709 90.6618 147.302 91.1378 147.778C91.6138 148.254 92.1972 148.492 92.8878 148.492ZM98.9193 144.39C98.9193 144.661 99.0546 144.88 99.3253 145.048C99.596 145.207 99.9226 145.337 100.305 145.44C100.688 145.533 101.071 145.645 101.453 145.776C101.836 145.897 102.163 146.112 102.433 146.42C102.704 146.719 102.839 147.106 102.839 147.582C102.839 148.217 102.592 148.725 102.097 149.108C101.612 149.491 100.987 149.682 100.221 149.682C99.54 149.682 98.9566 149.533 98.4713 149.234C97.986 148.935 97.6406 148.539 97.4353 148.044L98.4853 147.442C98.5973 147.778 98.8073 148.044 99.1153 148.24C99.4233 148.436 99.792 148.534 100.221 148.534C100.623 148.534 100.954 148.459 101.215 148.31C101.477 148.151 101.607 147.909 101.607 147.582C101.607 147.311 101.472 147.097 101.201 146.938C100.931 146.77 100.604 146.639 100.221 146.546C99.8386 146.443 99.456 146.327 99.0733 146.196C98.6906 146.065 98.364 145.851 98.0933 145.552C97.8226 145.253 97.6873 144.871 97.6873 144.404C97.6873 143.797 97.9206 143.298 98.3873 142.906C98.8633 142.514 99.456 142.318 100.165 142.318C100.735 142.318 101.239 142.449 101.677 142.71C102.125 142.962 102.461 143.317 102.685 143.774L101.663 144.348C101.411 143.751 100.912 143.452 100.165 143.452C99.82 143.452 99.526 143.536 99.2833 143.704C99.0406 143.863 98.9193 144.091 98.9193 144.39ZM104.944 146.56C105.065 147.185 105.35 147.671 105.798 148.016C106.255 148.361 106.815 148.534 107.478 148.534C108.402 148.534 109.074 148.193 109.494 147.512L110.53 148.1C109.849 149.155 108.822 149.682 107.45 149.682C106.339 149.682 105.434 149.337 104.734 148.646C104.043 147.946 103.698 147.064 103.698 146C103.698 144.945 104.039 144.068 104.72 143.368C105.401 142.668 106.283 142.318 107.366 142.318C108.393 142.318 109.228 142.682 109.872 143.41C110.525 144.129 110.852 144.997 110.852 146.014C110.852 146.191 110.838 146.373 110.81 146.56H104.944ZM107.366 143.466C106.713 143.466 106.171 143.653 105.742 144.026C105.313 144.39 105.047 144.88 104.944 145.496H109.62C109.517 144.833 109.256 144.329 108.836 143.984C108.416 143.639 107.926 143.466 107.366 143.466ZM119.7 139.7C121.035 139.7 122.141 140.176 123.018 141.128C123.905 142.071 124.348 143.228 124.348 144.6C124.348 145.972 123.905 147.134 123.018 148.086C122.141 149.029 121.035 149.5 119.7 149.5H115.878V139.7H119.7ZM119.7 148.268C120.699 148.268 121.515 147.918 122.15 147.218C122.785 146.518 123.102 145.645 123.102 144.6C123.102 143.555 122.785 142.682 122.15 141.982C121.515 141.282 120.699 140.932 119.7 140.932H117.18V148.268H119.7ZM131.709 148.618C130.99 149.327 130.118 149.682 129.091 149.682C128.064 149.682 127.192 149.327 126.473 148.618C125.764 147.909 125.409 147.036 125.409 146C125.409 144.964 125.764 144.091 126.473 143.382C127.192 142.673 128.064 142.318 129.091 142.318C130.118 142.318 130.99 142.673 131.709 143.382C132.428 144.091 132.787 144.964 132.787 146C132.787 147.036 132.428 147.909 131.709 148.618ZM129.091 148.492C129.791 148.492 130.379 148.254 130.855 147.778C131.331 147.302 131.569 146.709 131.569 146C131.569 145.291 131.331 144.698 130.855 144.222C130.379 143.746 129.791 143.508 129.091 143.508C128.4 143.508 127.817 143.746 127.341 144.222C126.865 144.698 126.627 145.291 126.627 146C126.627 146.709 126.865 147.302 127.341 147.778C127.817 148.254 128.4 148.492 129.091 148.492ZM141.783 142.318C142.567 142.318 143.201 142.575 143.687 143.088C144.172 143.592 144.415 144.278 144.415 145.146V149.5H143.197V145.188C143.197 144.647 143.057 144.227 142.777 143.928C142.497 143.629 142.123 143.48 141.657 143.48C141.134 143.48 140.714 143.657 140.397 144.012C140.089 144.357 139.935 144.889 139.935 145.608V149.5H138.717V145.188C138.717 144.647 138.581 144.227 138.311 143.928C138.049 143.629 137.69 143.48 137.233 143.48C136.719 143.48 136.29 143.657 135.945 144.012C135.609 144.367 135.441 144.899 135.441 145.608V149.5H134.223V142.5H135.441V143.438C135.917 142.691 136.612 142.318 137.527 142.318C138.469 142.318 139.155 142.715 139.585 143.508C140.07 142.715 140.803 142.318 141.783 142.318ZM151.9 142.5H153.118V149.5H151.9V148.296C151.293 149.22 150.411 149.682 149.254 149.682C148.274 149.682 147.438 149.327 146.748 148.618C146.057 147.899 145.712 147.027 145.712 146C145.712 144.973 146.057 144.105 146.748 143.396C147.438 142.677 148.274 142.318 149.254 142.318C150.411 142.318 151.293 142.78 151.9 143.704V142.5ZM149.408 148.506C150.117 148.506 150.71 148.268 151.186 147.792C151.662 147.307 151.9 146.709 151.9 146C151.9 145.291 151.662 144.698 151.186 144.222C150.71 143.737 150.117 143.494 149.408 143.494C148.708 143.494 148.12 143.737 147.644 144.222C147.168 144.698 146.93 145.291 146.93 146C146.93 146.709 147.168 147.307 147.644 147.792C148.12 148.268 148.708 148.506 149.408 148.506ZM155.579 141.226C155.346 141.226 155.15 141.147 154.991 140.988C154.832 140.829 154.753 140.638 154.753 140.414C154.753 140.19 154.832 139.999 154.991 139.84C155.15 139.672 155.346 139.588 155.579 139.588C155.803 139.588 155.994 139.672 156.153 139.84C156.312 139.999 156.391 140.19 156.391 140.414C156.391 140.638 156.312 140.829 156.153 140.988C155.994 141.147 155.803 141.226 155.579 141.226ZM154.963 149.5V142.5H156.181V149.5H154.963ZM161.525 142.318C162.347 142.318 163.005 142.579 163.499 143.102C163.994 143.615 164.241 144.315 164.241 145.202V149.5H163.023V145.272C163.023 144.703 162.869 144.264 162.561 143.956C162.253 143.639 161.829 143.48 161.287 143.48C160.681 143.48 160.191 143.671 159.817 144.054C159.444 144.427 159.257 145.006 159.257 145.79V149.5H158.039V142.5H159.257V143.508C159.752 142.715 160.508 142.318 161.525 142.318Z" fill="#3284FF"/>
<path d="M212 142.5L218 148.5L224 142.5" stroke="#3284FF" stroke-width="2" stroke-linecap="round" stroke-linejoin="round"/>
<rect x="42.5" y="122" width="201" height="47" rx="11.5" stroke="#3284FF"/>
<path d="M286.276 140.1V141.156H283.792V148.5H282.688V141.156H280.216V140.1H286.276ZM290.605 142.5H291.721L289.273 148.872C289.017 149.552 288.657 150.068 288.193 150.42C287.737 150.78 287.209 150.94 286.609 150.9V149.928C287.345 149.984 287.885 149.576 288.229 148.704L288.337 148.476L285.721 142.5H286.837L288.877 147.204L290.605 142.5ZM295.905 142.344C296.745 142.344 297.461 142.652 298.053 143.268C298.645 143.876 298.941 144.62 298.941 145.5C298.941 146.38 298.645 147.128 298.053 147.744C297.461 148.352 296.745 148.656 295.905 148.656C294.913 148.656 294.157 148.26 293.637 147.468V150.9H292.593V142.5H293.637V143.532C294.157 142.74 294.913 142.344 295.905 142.344ZM295.773 147.648C296.373 147.648 296.877 147.444 297.285 147.036C297.693 146.62 297.897 146.108 297.897 145.5C297.897 144.892 297.693 144.384 297.285 143.976C296.877 143.56 296.373 143.352 295.773 143.352C295.165 143.352 294.657 143.56 294.249 143.976C293.841 144.384 293.637 144.892 293.637 145.5C293.637 146.108 293.841 146.62 294.249 147.036C294.657 147.444 295.165 147.648 295.773 147.648ZM300.919 145.98C301.023 146.516 301.267 146.932 301.651 147.228C302.043 147.524 302.523 147.672 303.091 147.672C303.883 147.672 304.459 147.38 304.819 146.796L305.707 147.3C305.123 148.204 304.243 148.656 303.067 148.656C302.115 148.656 301.339 148.36 300.739 147.768C300.147 147.168 299.851 146.412 299.851 145.5C299.851 144.596 300.143 143.844 300.727 143.244C301.311 142.644 302.067 142.344 302.995 142.344C303.875 142.344 304.591 142.656 305.143 143.28C305.703 143.896 305.983 144.64 305.983 145.512C305.983 145.664 305.971 145.82 305.947 145.98H300.919ZM302.995 143.328C302.435 143.328 301.971 143.488 301.603 143.808C301.235 144.12 301.007 144.54 300.919 145.068H304.927C304.839 144.5 304.615 144.068 304.255 143.772C303.895 143.476 303.475 143.328 302.995 143.328ZM315.823 148.5L315.139 146.616H311.359L310.675 148.5H309.487L312.619 140.1H313.879L317.011 148.5H315.823ZM311.743 145.572H314.755L313.243 141.432L311.743 145.572ZM317.894 148.5V139.74H318.938V148.5H317.894ZM321.058 141.408C320.858 141.408 320.69 141.34 320.554 141.204C320.418 141.068 320.35 140.904 320.35 140.712C320.35 140.52 320.418 140.356 320.554 140.22C320.69 140.076 320.858 140.004 321.058 140.004C321.25 140.004 321.414 140.076 321.55 140.22C321.686 140.356 321.754 140.52 321.754 140.712C321.754 140.904 321.686 141.068 321.55 141.204C321.414 141.34 321.25 141.408 321.058 141.408ZM320.53 148.5V142.5H321.574V148.5H320.53ZM328.135 142.5H329.179V148.5H328.135V147.468C327.615 148.26 326.859 148.656 325.867 148.656C325.027 148.656 324.311 148.352 323.719 147.744C323.127 147.128 322.831 146.38 322.831 145.5C322.831 144.62 323.127 143.876 323.719 143.268C324.311 142.652 325.027 142.344 325.867 142.344C326.859 142.344 327.615 142.74 328.135 143.532V142.5ZM325.999 147.648C326.607 147.648 327.115 147.444 327.523 147.036C327.931 146.62 328.135 146.108 328.135 145.5C328.135 144.892 327.931 144.384 327.523 143.976C327.115 143.56 326.607 143.352 325.999 143.352C325.399 143.352 324.895 143.56 324.487 143.976C324.079 144.384 323.875 144.892 323.875 145.5C323.875 146.108 324.079 146.62 324.487 147.036C324.895 147.444 325.399 147.648 325.999 147.648ZM331.649 144.12C331.649 144.352 331.765 144.54 331.997 144.684C332.229 144.82 332.509 144.932 332.837 145.02C333.165 145.1 333.493 145.196 333.821 145.308C334.149 145.412 334.429 145.596 334.661 145.86C334.893 146.116 335.009 146.448 335.009 146.856C335.009 147.4 334.797 147.836 334.373 148.164C333.957 148.492 333.421 148.656 332.765 148.656C332.181 148.656 331.681 148.528 331.265 148.272C330.849 148.016 330.553 147.676 330.377 147.252L331.277 146.736C331.373 147.024 331.553 147.252 331.817 147.42C332.081 147.588 332.397 147.672 332.765 147.672C333.109 147.672 333.393 147.608 333.617 147.48C333.841 147.344 333.953 147.136 333.953 146.856C333.953 146.624 333.837 146.44 333.605 146.304C333.373 146.16 333.093 146.048 332.765 145.968C332.437 145.88 332.109 145.78 331.781 145.668C331.453 145.556 331.173 145.372 330.941 145.116C330.709 144.86 330.593 144.532 330.593 144.132C330.593 143.612 330.793 143.184 331.193 142.848C331.601 142.512 332.109 142.344 332.717 142.344C333.205 142.344 333.637 142.456 334.013 142.68C334.397 142.896 334.685 143.2 334.877 143.592L334.001 144.084C333.785 143.572 333.357 143.316 332.717 143.316C332.421 143.316 332.169 143.388 331.961 143.532C331.753 143.668 331.649 143.864 331.649 144.12ZM342.233 142.344C342.937 142.344 343.501 142.568 343.925 143.016C344.349 143.456 344.561 144.056 344.561 144.816V148.5H343.517V144.876C343.517 144.388 343.385 144.012 343.121 143.748C342.857 143.476 342.493 143.34 342.029 143.34C341.509 143.34 341.089 143.504 340.769 143.832C340.449 144.152 340.289 144.648 340.289 145.32V148.5H339.245V140.1H340.289V143.364C340.713 142.684 341.361 142.344 342.233 142.344ZM346.751 145.98C346.855 146.516 347.099 146.932 347.483 147.228C347.875 147.524 348.355 147.672 348.923 147.672C349.715 147.672 350.291 147.38 350.651 146.796L351.539 147.3C350.955 148.204 350.075 148.656 348.899 148.656C347.947 148.656 347.171 148.36 346.571 147.768C345.979 147.168 345.683 146.412 345.683 145.5C345.683 144.596 345.975 143.844 346.559 143.244C347.143 142.644 347.899 142.344 348.827 142.344C349.707 142.344 350.423 142.656 350.975 143.28C351.535 143.896 351.815 144.64 351.815 145.512C351.815 145.664 351.803 145.82 351.779 145.98H346.751ZM348.827 143.328C348.267 143.328 347.803 143.488 347.435 143.808C347.067 144.12 346.839 144.54 346.751 145.068H350.759C350.671 144.5 350.447 144.068 350.087 143.772C349.727 143.476 349.307 143.328 348.827 143.328ZM354.059 143.508C354.403 142.764 355.027 142.392 355.931 142.392V143.484C355.419 143.46 354.979 143.596 354.611 143.892C354.243 144.188 354.059 144.664 354.059 145.32V148.5H353.015V142.5H354.059V143.508ZM357.356 145.98C357.46 146.516 357.704 146.932 358.088 147.228C358.48 147.524 358.96 147.672 359.528 147.672C360.32 147.672 360.896 147.38 361.256 146.796L362.144 147.3C361.56 148.204 360.68 148.656 359.504 148.656C358.552 148.656 357.776 148.36 357.176 147.768C356.584 147.168 356.288 146.412 356.288 145.5C356.288 144.596 356.58 143.844 357.164 143.244C357.748 142.644 358.504 142.344 359.432 142.344C360.312 142.344 361.028 142.656 361.58 143.28C362.14 143.896 362.42 144.64 362.42 145.512C362.42 145.664 362.408 145.82 362.384 145.98H357.356ZM359.432 143.328C358.872 143.328 358.408 143.488 358.04 143.808C357.672 144.12 357.444 144.54 357.356 145.068H361.364C361.276 144.5 361.052 144.068 360.692 143.772C360.332 143.476 359.912 143.328 359.432 143.328Z" fill="#3284FF"/>
<rect x="256.5" y="122" width="177" height="47" rx="11.5" stroke="#3284FF"/>
</svg>
